M48
; DRILL file {KiCad 6.0.8-f2edbf62ab~116~ubuntu22.04.1} date Mon 21 Nov 2022 12:08:02 PM
; FORMAT={-:-/ absolute / metric / decimal}
; #@! TF.CreationDate,2022-11-21T12:08:02-08:00
; #@! TF.GenerationSoftware,Kicad,Pcbnew,6.0.8-f2edbf62ab~116~ubuntu22.04.1
; #@! TF.FileFunction,MixedPlating,1,2
FMAT,2
METRIC
; #@! TA.AperFunction,Plated,PTH,ViaDrill
T1C0.400
; #@! TA.AperFunction,Plated,PTH,ComponentDrill
T2C1.000
; #@! TA.AperFunction,Plated,PTH,ComponentDrill
T3C1.020
; #@! TA.AperFunction,Plated,PTH,ComponentDrill
T4C1.100
; #@! TA.AperFunction,Plated,PTH,ViaDrill
T5C3.200
; #@! TA.AperFunction,NonPlated,NPTH,ComponentDrill
T6C1.500
; #@! TA.AperFunction,NonPlated,NPTH,ComponentDrill
T7C1.800
%
G90
G05
T1
X145.225Y-86.233
X168.275Y-114.935
X168.8Y-88.0
X168.9Y-76.7
X173.482Y-114.935
X178.308Y-114.935
T2
X126.365Y-77.47
X128.905Y-77.47
X131.445Y-77.47
X136.525Y-77.47
X139.065Y-77.47
X141.605Y-77.47
X144.145Y-77.47
X146.685Y-77.47
X152.527Y-77.597
X152.527Y-80.137
X158.75Y-77.47
X158.75Y-80.01
X165.1Y-77.47
X165.1Y-80.01
X175.26Y-76.873
X175.26Y-79.413
X175.26Y-81.953
X175.26Y-84.493
X175.26Y-87.033
X175.26Y-89.573
X175.26Y-92.113
X175.26Y-94.653
X175.26Y-97.193
X175.26Y-99.733
X175.26Y-102.273
X175.26Y-104.813
X175.26Y-107.353
X175.26Y-109.893
X175.26Y-112.433
X177.8Y-76.873
X177.8Y-79.413
X177.8Y-81.953
X177.8Y-84.493
X177.8Y-87.033
X177.8Y-89.573
X177.8Y-92.113
X177.8Y-94.653
X177.8Y-97.193
X177.8Y-99.733
X177.8Y-102.273
X177.8Y-104.813
X177.8Y-107.353
X177.8Y-109.893
X177.8Y-112.433
T3
X118.135Y-93.345
X118.135Y-111.125
X120.675Y-93.345
X120.675Y-111.125
X123.215Y-93.345
X123.215Y-111.125
X125.755Y-93.345
X125.755Y-111.125
X128.295Y-93.345
X128.295Y-111.125
X130.835Y-93.345
X130.835Y-111.125
X133.375Y-93.345
X133.375Y-111.125
X135.915Y-93.345
X135.915Y-111.125
X138.455Y-93.345
X138.455Y-111.125
X140.995Y-93.345
X140.995Y-111.125
X143.535Y-93.345
X143.535Y-111.125
X146.075Y-93.345
X146.075Y-111.125
X148.615Y-93.345
X148.615Y-111.125
X151.155Y-93.345
X151.155Y-111.125
X153.695Y-93.345
X153.695Y-111.125
X156.235Y-93.345
X156.235Y-111.125
X158.775Y-93.345
X158.775Y-111.125
X161.315Y-93.345
X161.315Y-111.125
X163.855Y-93.345
X163.855Y-111.125
X166.165Y-99.695
X166.165Y-102.235
X166.165Y-104.775
X166.395Y-93.345
X166.395Y-111.125
T4
X116.586Y-76.685
X116.586Y-83.185
X121.086Y-76.685
X121.086Y-83.185
T5
X116.84Y-70.2
X116.84Y-120.3
X177.8Y-70.2
X177.8Y-120.3
T6
X121.295Y-99.81
X121.295Y-104.66
T7
X118.265Y-99.51
X118.265Y-104.96
T0
M30
